<svg width="94" height="57" viewBox="0 0 94 57" fill="none" xmlns="http://www.w3.org/2000/svg">
<g clip-path="url(#clip0_543_18158)">
<path d="M45.99 33.41H0.429993V38.62H45.99V33.41Z" fill="#243982"/>
<path d="M93.7 0.959991H56.25V6.17999H93.7V0.959991Z" fill="#243982"/>
<path d="M42.41 49.18H38.15V54.39H42.41V49.18Z" fill="#243982"/>
<path d="M6.44986 4.22999H7.91986V7.57999C7.48188 7.93038 6.98376 8.19808 6.44986 8.36999C5.87756 8.55291 5.28068 8.64733 4.67986 8.64999C3.87181 8.66076 3.07403 8.46819 2.35986 8.08999C1.67378 7.73686 1.09913 7.20029 0.699865 6.53999C0.30349 5.87169 0.0993228 5.10693 0.109865 4.32999C0.0979948 3.54974 0.302191 2.78141 0.699865 2.10999C1.08933 1.45247 1.65359 0.915903 2.32986 0.559994C3.04488 0.171348 3.84605 -0.0315227 4.65986 -0.030006C5.31628 -0.0362906 5.96789 0.082492 6.57986 0.319994C7.1352 0.534494 7.63202 0.877129 8.02986 1.31999L7.02986 2.31999C6.73273 2.0027 6.37334 1.75013 5.97415 1.57806C5.57495 1.406 5.14456 1.31814 4.70986 1.31999C4.15961 1.31169 3.61617 1.44239 3.12986 1.69999C2.68234 1.9242 2.30779 2.27102 2.04986 2.69999C1.78384 3.16896 1.64912 3.70094 1.65986 4.23999C1.65447 4.76891 1.78902 5.28984 2.04986 5.74999C2.31152 6.17592 2.6851 6.52182 3.12986 6.74999C3.61032 7.01445 4.1515 7.14888 4.69986 7.13999C5.29953 7.19822 5.90384 7.09463 6.44986 6.83999V4.22999Z" fill="#1D1D1B"/>
<path d="M15.45 8.52999L13.76 6.06999H11.54V8.51999H9.97998V0.129992H13.45C14.1016 0.114918 14.749 0.237594 15.35 0.489992C15.8557 0.693558 16.2904 1.04131 16.6 1.48999C16.8924 1.96797 17.0416 2.51978 17.03 3.07999C17.043 3.66023 16.8829 4.23119 16.57 4.71999C16.2373 5.17951 15.7738 5.52802 15.24 5.71999L17.17 8.47999L15.45 8.52999ZM14.89 1.87999C14.4385 1.56188 13.8908 1.40993 13.34 1.44999H11.54V4.78999H13.36C13.9108 4.83005 14.4585 4.67811 14.91 4.35999C15.0892 4.20649 15.231 4.01409 15.3246 3.79746C15.4182 3.58084 15.4611 3.34571 15.45 3.10999C15.461 2.8772 15.418 2.64503 15.3243 2.43164C15.2306 2.21825 15.0888 2.02944 14.91 1.87999H14.89Z" fill="#1D1D1B"/>
<path d="M20.36 8.08999C19.6827 7.72568 19.1184 7.18237 18.7287 6.51934C18.339 5.85631 18.1388 5.09899 18.15 4.32999C18.137 3.55931 18.3363 2.79989 18.7261 2.13493C19.1159 1.46996 19.6812 0.925093 20.36 0.559992C21.0763 0.192361 21.8699 0.000610352 22.675 0.000610352C23.4802 0.000610352 24.2737 0.192361 24.99 0.559992C25.6614 0.919078 26.2216 1.45512 26.61 2.10999C27.0077 2.7814 27.2119 3.54974 27.2 4.32999C27.2106 5.10693 27.0064 5.87169 26.61 6.53999C26.2216 7.19486 25.6614 7.73091 24.99 8.08999C24.2737 8.45762 23.4802 8.64937 22.675 8.64937C21.8699 8.64937 21.0763 8.45762 20.36 8.08999ZM24.18 6.89999C24.6241 6.6508 24.9908 6.28404 25.24 5.83999C25.4974 5.37888 25.6285 4.858 25.62 4.32999C25.6302 3.79861 25.4991 3.27405 25.24 2.80999C24.9908 2.36595 24.6241 1.99918 24.18 1.74999C23.7183 1.50399 23.2032 1.37533 22.68 1.37533C22.1569 1.37533 21.6417 1.50399 21.18 1.74999C20.736 1.99918 20.3692 2.36595 20.12 2.80999C19.8649 3.2756 19.734 3.79909 19.74 4.32999C19.7353 4.85756 19.8661 5.37751 20.12 5.83999C20.3692 6.28404 20.736 6.6508 21.18 6.89999C21.6417 7.14599 22.1569 7.27466 22.68 7.27466C23.2032 7.27466 23.7183 7.14599 24.18 6.89999Z" fill="#1D1D1B"/>
<path d="M29.7498 7.67C29.4034 7.29447 29.1364 6.85296 28.9645 6.37187C28.7927 5.89077 28.7197 5.37997 28.7498 4.87V0.130005H30.3098V4.8C30.3098 6.45001 31.0198 7.28001 32.4498 7.28001C33.8798 7.28001 34.5698 6.45001 34.5698 4.8V0.130005H36.1098V4.87C36.1376 5.37976 36.0635 5.88994 35.8917 6.37072C35.72 6.85149 35.4542 7.2932 35.1098 7.67C34.7502 8.01279 34.3243 8.27836 33.8582 8.45033C33.3921 8.62231 32.8958 8.69707 32.3998 8.67C31.9138 8.68774 31.4291 8.60844 30.9741 8.43674C30.5191 8.26504 30.1029 8.00439 29.7498 7.67Z" fill="#1D1D1B"/>
<path d="M43.6798 0.489996C44.1828 0.693692 44.6142 1.04163 44.9198 1.49C45.2171 1.96588 45.3667 2.51916 45.3498 3.08C45.3649 3.64063 45.2154 4.19339 44.9198 4.67C44.616 5.12003 44.184 5.46842 43.6798 5.67C43.0785 5.92125 42.4313 6.04388 41.7798 6.03H39.8798V8.46H38.3198V0.129996H41.7798C42.4313 0.116117 43.0785 0.238745 43.6798 0.489996ZM43.2498 4.35C43.4276 4.19802 43.5679 4.00706 43.6599 3.79199C43.7518 3.57692 43.7928 3.34353 43.7798 3.11C43.792 2.87802 43.7506 2.64635 43.6587 2.43302C43.5667 2.21969 43.4268 2.03044 43.2498 1.88C42.7984 1.56188 42.2507 1.40994 41.6998 1.45H39.8798V4.78H41.6998C42.2507 4.82006 42.7984 4.66811 43.2498 4.35Z" fill="#1D1D1B"/>
<path d="M53.2102 7.22001V8.53001H46.9102V0.130005H53.0402V1.43H48.4502V3.62H52.5102V4.9H48.4502V7.22001H53.2102Z" fill="#1D1D1B"/>
<path d="M8.17996 15.39V23.79H6.61996V20.19H2.26996V23.79H0.709961V15.39H2.26996V18.85H6.61996V15.39H8.17996Z" fill="#1D1D1B"/>
<path d="M13.0102 23.35C12.3367 22.9939 11.7757 22.4571 11.3902 21.8C11.0034 21.1259 10.7998 20.3622 10.7998 19.585C10.7998 18.8078 11.0034 18.0441 11.3902 17.37C11.7786 16.7151 12.3389 16.1791 13.0102 15.82C13.7284 15.4586 14.5212 15.2704 15.3252 15.2704C16.1292 15.2704 16.9221 15.4586 17.6402 15.82C18.319 16.187 18.8859 16.7306 19.281 17.3934C19.6762 18.0561 19.8848 18.8134 19.8848 19.585C19.8848 20.3566 19.6762 21.1139 19.281 21.7766C18.8859 22.4394 18.319 22.983 17.6402 23.35C16.9239 23.7176 16.1304 23.9094 15.3252 23.9094C14.5201 23.9094 13.7265 23.7176 13.0102 23.35ZM16.8402 22.16C17.2865 21.9138 17.654 21.5463 17.9002 21.1C18.1554 20.638 18.2863 20.1177 18.2802 19.59C18.2863 19.0591 18.1554 18.5356 17.9002 18.07C17.657 17.6112 17.2897 17.2301 16.8402 16.97C16.3785 16.724 15.8634 16.5953 15.3402 16.5953C14.8171 16.5953 14.3019 16.724 13.8402 16.97C13.3962 17.2192 13.0294 17.586 12.7802 18.03C12.5212 18.4941 12.39 19.0186 12.4002 19.55C12.3918 20.078 12.5229 20.5989 12.7802 21.06C13.0264 21.5063 13.3939 21.8738 13.8402 22.12C14.3019 22.366 14.8171 22.4947 15.3402 22.4947C15.8634 22.4947 16.3785 22.366 16.8402 22.12V22.16Z" fill="#1D1D1B"/>
<path d="M23.21 23.63C22.6841 23.4903 22.1935 23.2416 21.77 22.9L22.31 21.69C22.6927 21.9807 23.1222 22.2039 23.58 22.35C24.0623 22.5187 24.5691 22.6065 25.08 22.61C25.5656 22.643 26.0506 22.5391 26.48 22.31C26.6203 22.2314 26.7369 22.1167 26.8178 21.9778C26.8987 21.8388 26.9409 21.6808 26.94 21.52C26.9433 21.408 26.9227 21.2966 26.8796 21.1931C26.8365 21.0897 26.7719 20.9966 26.69 20.92C26.4937 20.7609 26.2701 20.6389 26.03 20.56C25.77 20.4667 25.41 20.3667 24.95 20.26C24.4406 20.1393 23.9396 19.9856 23.45 19.8C23.0631 19.6497 22.7195 19.4057 22.45 19.09C22.1462 18.7195 21.9927 18.2484 22.02 17.77C22.0183 17.3215 22.1506 16.8828 22.4 16.51C22.6602 16.1164 23.0234 15.8016 23.45 15.6C24.0412 15.365 24.6741 15.2527 25.31 15.27C25.8227 15.2681 26.3336 15.332 26.83 15.46C27.2839 15.572 27.7163 15.7578 28.11 16.01L27.62 17.22C27.2524 17.0077 26.8592 16.843 26.45 16.73C26.0694 16.6211 25.6759 16.5639 25.28 16.56C24.8031 16.5303 24.3277 16.6379 23.91 16.87C23.7725 16.9606 23.6594 17.0838 23.5809 17.2286C23.5024 17.3734 23.4609 17.5353 23.46 17.7C23.4553 17.8117 23.4763 17.923 23.5214 18.0253C23.5664 18.1276 23.6344 18.2181 23.72 18.29C23.9113 18.451 24.1321 18.5732 24.37 18.65C24.6434 18.7367 25.0034 18.8367 25.45 18.95C25.9744 19.0592 26.4894 19.2097 26.99 19.4C27.375 19.5539 27.7178 19.7973 27.99 20.11C28.2926 20.4734 28.4462 20.9379 28.42 21.41C28.4218 21.8585 28.2894 22.2973 28.04 22.67C27.7575 23.0762 27.3607 23.3894 26.9 23.57C26.3026 23.8087 25.6632 23.9243 25.02 23.91C24.4065 23.9024 23.7971 23.8082 23.21 23.63Z" fill="#1D1D1B"/>
<path d="M36.36 15.75C36.8629 15.9537 37.2944 16.3016 37.6 16.75C37.8821 17.2324 38.0307 17.7812 38.0307 18.34C38.0307 18.8988 37.8821 19.4476 37.6 19.93C37.2962 20.38 36.8642 20.7284 36.36 20.93C35.7587 21.1813 35.1115 21.3039 34.46 21.29H32.56V23.72H31V15.32H34.45C35.1099 15.3268 35.7609 15.4733 36.36 15.75ZM35.93 19.61C36.098 19.4511 36.2317 19.2597 36.3232 19.0473C36.4146 18.835 36.4618 18.6062 36.4618 18.375C36.4618 18.1438 36.4146 17.915 36.3232 17.7027C36.2317 17.4904 36.098 17.2989 35.93 17.14C35.4785 16.8219 34.9308 16.6699 34.38 16.71H32.56V20.04H34.38C34.9308 20.0801 35.4785 19.9281 35.93 19.61Z" fill="#1D1D1B"/>
<path d="M40.5601 15.39H42.1201V23.79H40.5601V15.39Z" fill="#1D1D1B"/>
<path d="M47.0698 16.71H44.2798V15.39H51.4498V16.71H48.6298V23.79H47.0698V16.71Z" fill="#1D1D1B"/>
<path d="M58.5902 21.84H54.3902L53.5602 23.79H51.9502L55.7302 15.39H57.2702L61.0602 23.79H59.4502L58.5902 21.84ZM58.0702 20.62L56.4502 16.97L54.8702 20.64L58.0702 20.62Z" fill="#1D1D1B"/>
<path d="M63.1001 15.39H64.6601V22.47H69.0501V23.79H63.1001V15.39Z" fill="#1D1D1B"/>
<path d="M71.2598 15.39H72.8198V23.79H71.2598V15.39Z" fill="#1D1D1B"/>
<path d="M82.3601 22.48V23.79H76.0601V15.39H82.1901V16.69H77.6201V18.88H81.6201V20.16H77.6201V22.48H82.3601Z" fill="#1D1D1B"/>
<path d="M90.5698 23.79L88.8498 21.33H86.6298V23.78H85.0698V15.38H88.5298C89.1813 15.3661 89.8285 15.4887 90.4298 15.74C90.9328 15.9437 91.3642 16.2916 91.6698 16.74C91.9614 17.2282 92.1153 17.7863 92.1153 18.355C92.1153 18.9237 91.9614 19.4817 91.6698 19.97C91.3372 20.4295 90.8736 20.778 90.3398 20.97L92.2798 23.73L90.5698 23.79ZM89.9998 17.14C89.5484 16.8219 89.0007 16.6699 88.4498 16.71H86.6298V20.05H88.4498C89.0007 20.0901 89.5484 19.9381 89.9998 19.62C90.1772 19.4655 90.3171 19.2727 90.409 19.0561C90.5008 18.8395 90.5421 18.6049 90.5298 18.37C90.542 18.138 90.5006 17.9064 90.4087 17.693C90.3167 17.4797 90.1768 17.2904 89.9998 17.14Z" fill="#1D1D1B"/>
<path d="M1.44977 55.75C0.925138 55.6071 0.435159 55.3587 0.00976562 55.02L0.549766 53.81C0.933754 54.0986 1.3629 54.3216 1.81977 54.47C2.30531 54.6394 2.81553 54.7272 3.32977 54.73C3.81213 54.7633 4.29406 54.6593 4.71977 54.43C4.86118 54.3519 4.97925 54.2375 5.06185 54.0987C5.14445 53.9599 5.1886 53.8015 5.18977 53.64C5.19177 53.5272 5.16961 53.4153 5.12476 53.3118C5.07991 53.2083 5.01342 53.1156 4.92977 53.04C4.73609 52.877 4.51165 52.7546 4.26977 52.68C4.00977 52.5867 3.64977 52.4867 3.18977 52.38C2.66156 52.2767 2.1405 52.1398 1.62977 51.97C1.24285 51.8197 0.899262 51.5757 0.629766 51.26C0.333422 50.8855 0.180893 50.4172 0.199766 49.94C0.198024 49.4915 0.330353 49.0527 0.579766 48.68C0.864321 48.2733 1.26014 47.9574 1.71977 47.77C2.31423 47.5342 2.95049 47.4219 3.58977 47.44C4.09912 47.439 4.60654 47.5028 5.09977 47.63C5.55432 47.7401 5.98705 47.926 6.37977 48.18L5.88977 49.39C5.52844 49.1792 5.14209 49.0146 4.73977 48.9C4.36241 48.7918 3.97228 48.7347 3.57977 48.73C3.09973 48.6735 2.61359 48.7569 2.17977 48.97C2.0422 49.0606 1.92915 49.1837 1.85065 49.3285C1.77214 49.4733 1.73062 49.6353 1.72977 49.8C1.72721 49.9114 1.74917 50.022 1.7941 50.1239C1.83903 50.2259 1.90583 50.3167 1.98977 50.39C2.18107 50.551 2.40183 50.6732 2.63977 50.75C2.90643 50.8433 3.26643 50.9433 3.71977 51.05C4.24416 51.1592 4.7591 51.3096 5.25977 51.5C5.6428 51.6574 5.98483 51.9003 6.25977 52.21C6.55441 52.5772 6.70388 53.0398 6.67977 53.51C6.68658 53.9592 6.55381 54.3995 6.29977 54.77C6.01721 55.1762 5.62046 55.4894 5.15977 55.67C4.56586 55.9087 3.92968 56.0244 3.28977 56.01C2.66717 56.0115 2.04757 55.9239 1.44977 55.75Z" fill="#1D1D1B"/>
<path d="M13.7098 53.97H9.50982L8.67982 55.92H7.06982L10.8498 47.52H12.3898L16.1798 55.92H14.5498L13.7098 53.97ZM13.1898 52.75L11.6098 49.07L10.0398 52.74L13.1898 52.75Z" fill="#1D1D1B"/>
<path d="M17.25 47.51H18.81V55.91H17.25V47.51Z" fill="#1D1D1B"/>
<path d="M28.5398 47.51V55.91H27.2498L22.6198 50.22V55.91H21.0698V47.51H22.3598L26.9898 53.19V47.51H28.5398Z" fill="#1D1D1B"/>
<path d="M32.5 48.83H29.71V47.51H36.84V48.83H34.06V55.91H32.5V48.83Z" fill="#1D1D1B"/>
<path d="M44.9699 55.71C44.5299 55.5084 44.1481 55.1988 43.8599 54.81L44.7499 53.75C44.92 54.0451 45.1627 54.2919 45.455 54.4669C45.7473 54.6419 46.0794 54.7393 46.4199 54.75C47.2899 54.75 47.7299 54.23 47.7299 53.2V48.81H44.7299V47.51H49.2799V53.07C49.3426 53.8761 49.0837 54.6742 48.5599 55.29C48.2765 55.5497 47.9434 55.7492 47.5808 55.8764C47.2181 56.0036 46.8333 56.0559 46.4499 56.03C45.9391 56.0329 45.4338 55.9237 44.9699 55.71Z" fill="#1D1D1B"/>
<path d="M53.0798 55.47C52.4091 55.129 51.8452 54.6101 51.4498 53.97C51.0629 53.2959 50.8594 52.5322 50.8594 51.755C50.8594 50.9778 51.0629 50.2141 51.4498 49.54C51.838 48.8764 52.4021 48.3331 53.0798 47.97C53.798 47.6086 54.5908 47.4203 55.3948 47.4203C56.1988 47.4203 56.9916 47.6086 57.7098 47.97C58.3812 48.3291 58.9414 48.8651 59.3298 49.52C59.7275 50.1914 59.9317 50.9597 59.9198 51.74C59.9309 52.5233 59.7269 53.2947 59.3298 53.97C58.9412 54.6221 58.3808 55.1549 57.7098 55.51C56.9935 55.8776 56.1999 56.0694 55.3948 56.0694C54.5897 56.0694 53.7961 55.8776 53.0798 55.51V55.47ZM56.9098 54.28C57.3346 54.0258 57.6808 53.6589 57.9098 53.22C58.1706 52.7598 58.3052 52.2389 58.2998 51.71C58.307 51.1777 58.1724 50.6531 57.9098 50.19C57.6783 49.7529 57.3327 49.3866 56.9098 49.13C56.4442 48.8748 55.9207 48.744 55.3898 48.75C54.8621 48.7439 54.3418 48.8748 53.8798 49.13C53.455 49.3842 53.1088 49.7511 52.8798 50.19C52.6033 50.6491 52.4548 51.174 52.4498 51.71C52.4444 52.2389 52.579 52.7598 52.8398 53.22C53.0657 53.6611 53.4126 54.0288 53.8398 54.28C54.3018 54.5352 54.8221 54.6661 55.3498 54.66C55.8942 54.673 56.4324 54.5419 56.9098 54.28Z" fill="#1D1D1B"/>
<path d="M62.3001 55.75C61.7781 55.6082 61.2912 55.3596 60.8701 55.02L61.4501 53.81C61.8291 54.1007 62.2553 54.324 62.7101 54.47C63.1957 54.6394 63.7059 54.7272 64.2201 54.73C64.7056 54.7619 65.1904 54.658 65.6201 54.43C65.759 54.3498 65.8745 54.2348 65.9552 54.0962C66.0359 53.9576 66.0789 53.8003 66.0801 53.64C66.0821 53.5272 66.06 53.4153 66.0151 53.3118C65.9703 53.2083 65.9038 53.1157 65.8201 53.04C65.6288 52.879 65.4081 52.7568 65.1701 52.68C64.8968 52.5867 64.5368 52.4867 64.0901 52.38C63.5351 52.2794 62.9872 52.1425 62.4501 51.97C62.0659 51.8148 61.7233 51.5716 61.4501 51.26C61.1574 50.8841 61.0084 50.416 61.0301 49.94C61.0292 49.4701 61.1762 49.0118 61.4501 48.63C61.7394 48.2278 62.1338 47.913 62.5901 47.72C63.1815 47.4855 63.8142 47.3733 64.4501 47.39C64.9595 47.3879 65.4671 47.4517 65.9601 47.58C66.4178 47.6901 66.8538 47.876 67.2501 48.13L66.7501 49.34C66.3895 49.1278 66.0029 48.9631 65.6001 48.85C65.226 48.7427 64.8393 48.6856 64.4501 48.68C63.9699 48.6489 63.4909 48.7565 63.0701 48.99C62.9326 49.0806 62.8195 49.2037 62.741 49.3485C62.6625 49.4933 62.621 49.6553 62.6201 49.82C62.6176 49.9314 62.6395 50.042 62.6845 50.1439C62.7294 50.2459 62.7962 50.3367 62.8801 50.41C63.0738 50.573 63.2982 50.6954 63.5401 50.77C63.8001 50.8633 64.1601 50.9633 64.6201 51.07C65.1409 51.1804 65.6524 51.3309 66.1501 51.52C66.5332 51.6775 66.8752 51.9203 67.1501 52.23C67.4448 52.5972 67.5942 53.0598 67.5701 53.53C67.5754 53.9775 67.4466 54.4164 67.2001 54.79C66.9115 55.1945 66.5121 55.507 66.0501 55.69C65.4562 55.9287 64.82 56.0444 64.1801 56.03C63.5432 56.0289 62.9098 55.9345 62.3001 55.75Z" fill="#1D1D1B"/>
<path d="M75.4499 54.6V55.91H69.1499V47.51H75.2499V48.81H70.6799V50.97H74.7399V52.25H70.6799V54.57L75.4499 54.6Z" fill="#1D1D1B"/>
<path d="M82.5202 47.87C83.0231 48.0737 83.4545 48.4216 83.7602 48.87C84.0422 49.3524 84.1909 49.9012 84.1909 50.46C84.1909 51.0188 84.0422 51.5676 83.7602 52.05C83.4563 52.5 83.0243 52.8484 82.5202 53.05C81.9192 53.3024 81.2718 53.4251 80.6202 53.41H78.7202V55.84H77.1602V47.44H80.6202C81.2768 47.447 81.9245 47.5935 82.5202 47.87ZM82.0902 51.73C82.2581 51.5711 82.3919 51.3797 82.4833 51.1673C82.5748 50.955 82.6219 50.7262 82.6219 50.495C82.6219 50.2638 82.5748 50.035 82.4833 49.8227C82.3919 49.6103 82.2581 49.4189 82.0902 49.26C81.6425 48.9418 81.0979 48.7898 80.5502 48.83H78.7202V52.16H80.5502C81.0979 52.2002 81.6425 52.0482 82.0902 51.73Z" fill="#1D1D1B"/>
<path d="M93.22 47.51V55.91H91.66V52.31H87.31V55.91H85.75V47.51H87.31V50.97H91.66V47.51H93.22Z" fill="#1D1D1B"/>
<path d="M55.5102 32.51C56.014 32.7121 56.4459 33.0604 56.7502 33.51C57.0384 33.9903 57.1906 34.5399 57.1906 35.1C57.1906 35.6601 57.0384 36.2097 56.7502 36.69C56.4459 37.1396 56.014 37.4879 55.5102 37.69C54.9092 37.9424 54.2618 38.0651 53.6102 38.05H51.7102V40.47H50.1602V32.16H53.6102C54.2606 32.147 54.907 32.266 55.5102 32.51ZM55.0902 36.38C55.2581 36.2211 55.3919 36.0297 55.4833 35.8173C55.5748 35.605 55.6219 35.3762 55.6219 35.145C55.6219 34.9138 55.5748 34.685 55.4833 34.4727C55.3919 34.2603 55.2581 34.0689 55.0902 33.91C54.64 33.5883 54.0922 33.4328 53.5402 33.47H51.7102V36.81H53.5402C54.091 36.8501 54.6387 36.6981 55.0902 36.38Z" fill="#1D1D1B"/>
<path d="M65.5799 38.61H61.3699L60.5499 40.55H58.9399L62.7199 32.16H64.2499L68.0499 40.55H66.4499L65.5799 38.61ZM65.0599 37.39L63.4499 33.71L61.8799 37.39H65.0599Z" fill="#1D1D1B"/>
<path d="M76.4499 40.55L74.7399 38.09H74.4099H72.4499V40.53H70.9199V32.16H74.3699C75.0204 32.147 75.6668 32.266 76.2699 32.51C76.7738 32.7121 77.2056 33.0604 77.5099 33.51C77.809 33.9855 77.962 34.5384 77.9499 35.1C77.9592 35.698 77.7847 36.2844 77.4499 36.78C77.1205 37.2427 76.6559 37.592 76.1199 37.78L78.0499 40.54L76.4499 40.55ZM75.8899 33.91C75.4398 33.5883 74.8919 33.4328 74.3399 33.47H72.4499V36.82H74.2799C74.8325 36.8623 75.382 36.7063 75.8299 36.38C75.9941 36.2189 76.1245 36.0268 76.2136 35.8147C76.3026 35.6027 76.3484 35.375 76.3484 35.145C76.3484 34.915 76.3026 34.6873 76.2136 34.4753C76.1245 34.2632 75.9941 34.071 75.8299 33.91H75.8899Z" fill="#1D1D1B"/>
<path d="M81.4502 32.16H83.0502V40.55H81.4502V32.16Z" fill="#1D1D1B"/>
<path d="M87.8402 40.4C87.3339 40.2492 86.8618 40.0012 86.4502 39.67L86.9902 38.46C87.3692 38.7507 87.7954 38.974 88.2502 39.12C88.7357 39.2894 89.246 39.3772 89.7602 39.38C90.2457 39.4119 90.7304 39.308 91.1602 39.08C91.2991 38.9998 91.4146 38.8848 91.4953 38.7462C91.576 38.6076 91.619 38.4504 91.6202 38.29C91.6222 38.1772 91.6 38.0653 91.5552 37.9618C91.5103 37.8583 91.4439 37.7657 91.3602 37.69C91.1689 37.529 90.9481 37.4068 90.7102 37.33C90.4369 37.2433 90.0769 37.1433 89.6302 37.03C89.101 36.9097 88.58 36.7561 88.0702 36.57C87.6859 36.4148 87.3434 36.1716 87.0702 35.86C86.7774 35.4841 86.6285 35.016 86.6502 34.54C86.6449 34.0925 86.7738 33.6536 87.0202 33.28C87.3068 32.8753 87.702 32.5598 88.1602 32.37C88.7547 32.1342 89.3909 32.0219 90.0302 32.04C90.5396 32.0379 91.0472 32.1017 91.5402 32.23C91.9979 32.3401 92.4339 32.526 92.8302 32.78L92.2702 33.97C91.9096 33.7578 91.523 33.5931 91.1202 33.48C90.7428 33.3718 90.3527 33.3147 89.9602 33.31C89.4796 33.2742 88.9993 33.3821 88.5802 33.62C88.4426 33.7106 88.3296 33.8338 88.2511 33.9786C88.1726 34.1233 88.131 34.2853 88.1302 34.45C88.1276 34.5614 88.1496 34.672 88.1945 34.7739C88.2395 34.8759 88.3063 34.9667 88.3902 35.04C88.5839 35.203 88.8083 35.3254 89.0502 35.4C89.3102 35.4867 89.6702 35.5867 90.1302 35.7C90.651 35.8104 91.1625 35.9609 91.6602 36.15C92.0432 36.3075 92.3853 36.5503 92.6602 36.86C92.9565 37.2263 93.1062 37.6896 93.0802 38.16C93.0855 38.6075 92.9566 39.0464 92.7102 39.42C92.4215 39.8245 92.0222 40.137 91.5602 40.32C90.9655 40.555 90.3294 40.6673 89.6902 40.65C89.0647 40.6558 88.4417 40.5716 87.8402 40.4Z" fill="#1D1D1B"/>
</g>
<defs>
<clipPath id="clip0_543_18158">
<rect width="93.71" height="56.02" fill="white"/>
</clipPath>
</defs>
</svg>
